<?xml version="1.0" encoding="UTF-8" standalone="no"?>
<!-- Created with Inkscape (http://www.inkscape.org/) -->

<svg
   width="128"
   height="128"
   viewBox="0 0 33.866666 33.866666"
   version="1.1"
   id="svg1"
   sodipodi:docname="tower3.svg"
   inkscape:version="1.4.3 (0d15f75, 2025-12-25)"
   xmlns:inkscape="http://www.inkscape.org/namespaces/inkscape"
   xmlns:sodipodi="http://sodipodi.sourceforge.net/DTD/sodipodi-0.dtd"
   xmlns="http://www.w3.org/2000/svg"
   xmlns:svg="http://www.w3.org/2000/svg">
  <sodipodi:namedview
     id="namedview1"
     pagecolor="#ffffff"
     bordercolor="#000000"
     borderopacity="0.25"
     inkscape:showpageshadow="2"
     inkscape:pageopacity="0.0"
     inkscape:pagecheckerboard="0"
     inkscape:deskcolor="#d1d1d1"
     inkscape:document-units="px"
     inkscape:zoom="1.0520188"
     inkscape:cx="106.46197"
     inkscape:cy="27.09077"
     inkscape:window-width="1470"
     inkscape:window-height="890"
     inkscape:window-x="0"
     inkscape:window-y="38"
     inkscape:window-maximized="1"
     inkscape:current-layer="layer1" />
  <defs
     id="defs1">
    <inkscape:path-effect
       effect="bspline"
       id="path-effect20"
       is_visible="true"
       lpeversion="1.3"
       weight="33.333333"
       steps="2"
       helper_size="0"
       apply_no_weight="true"
       apply_with_weight="true"
       only_selected="false"
       uniform="false" />
    <inkscape:path-effect
       effect="bspline"
       id="path-effect19"
       is_visible="true"
       lpeversion="1.3"
       weight="33.333333"
       steps="2"
       helper_size="0"
       apply_no_weight="true"
       apply_with_weight="true"
       only_selected="false"
       uniform="false" />
    <inkscape:path-effect
       effect="bspline"
       id="path-effect18"
       is_visible="true"
       lpeversion="1.3"
       weight="33.333333"
       steps="2"
       helper_size="0"
       apply_no_weight="true"
       apply_with_weight="true"
       only_selected="false"
       uniform="false" />
    <inkscape:path-effect
       effect="bspline"
       id="path-effect17"
       is_visible="true"
       lpeversion="1.3"
       weight="33.333333"
       steps="2"
       helper_size="0"
       apply_no_weight="true"
       apply_with_weight="true"
       only_selected="false"
       uniform="false" />
    <inkscape:path-effect
       effect="bspline"
       id="path-effect16"
       is_visible="true"
       lpeversion="1.3"
       weight="33.333333"
       steps="2"
       helper_size="0"
       apply_no_weight="true"
       apply_with_weight="true"
       only_selected="false"
       uniform="false" />
    <linearGradient
       id="swatch12"
       inkscape:swatch="solid">
      <stop
         style="stop-color:#000000;stop-opacity:1;"
         offset="0"
         id="stop13" />
    </linearGradient>
  </defs>
  <g
     inkscape:label="图层 1"
     inkscape:groupmode="layer"
     id="layer1">
    <path
       style="fill:none;fill-opacity:1;fill-rule:nonzero;stroke:#000000;stroke-width:1.765;stroke-dasharray:none;stroke-opacity:1"
       d="M 7.0839327,8.3833524 C 6.7905153,10.060023 6.7905153,13.832531 6.7905153,17.521206 c 0,3.688675 0,7.293517 0.041917,9.389354 0.041917,2.095837 0.1257503,2.682673 0.2095829,2.934175 0.083833,0.251502 0.1676683,0.167666 0.2934185,0.12575 0.1257502,-0.04192 0.2934172,-0.04192 0.6287515,-0.125751 C 8.2995192,29.7609 8.80252,29.593233 10.101939,29.5094 c 1.29942,-0.08383 3.395258,-0.08383 5.323429,-0.167668 1.928171,-0.08383 3.688675,-0.251501 5.868346,-0.461084 2.179672,-0.209584 4.778511,-0.461085 6.371348,-0.586835 1.592838,-0.12575 2.179673,-0.12575 2.431173,-0.503001 0.2515,-0.377251 0.167666,-1.131753 0.12575,-1.760504 -0.04192,-0.628751 -0.04192,-1.131752 -0.293418,-3.185674 -0.2515,-2.053921 -0.754501,-5.658762 -1.047918,-8.718685 -0.293417,-3.059924 -0.377251,-5.5749298 -0.419167,-7.0839332 -0.04192,-1.5090034 -0.04192,-2.0120044 -0.125751,-2.221588 -0.08383,-0.2095835 -0.251502,-0.1257501 -1.006003,0 -0.754502,0.1257501 -2.095838,0.2934171 -3.059924,0.3772506 -0.964085,0.083833 -1.55092,0.083833 -2.556922,0.2095838 C 20.70688,5.5330125 19.28171,5.784513 18.024207,6.0360136 16.766704,6.2875142 15.676869,6.5390147 14.922367,6.7485986 14.167865,6.9581825 13.748698,7.1258493 12.742696,7.2515997 11.736693,7.37735 10.143856,7.4611835 9.0540203,7.2935165 7.9641846,7.1258494 7.37735,6.7066818 7.0839327,8.3833524 Z"
       id="path16"
       inkscape:path-effect="#path-effect17"
       inkscape:original-d="m 6.7905153,6.2875141 c 0,3.7725089 0,7.5450169 0,11.3175259 0,3.604841 0,7.209683 0,10.814525 0.083833,0.586832 0.167667,1.173668 0.2515005,1.760503 0.083833,-0.08383 0.1676672,-0.167667 0.2515007,-0.2515 0.167667,0 0.335334,0 0.503001,0 0.5030012,-0.167669 1.0060024,-0.335335 1.5090034,-0.503002 2.0958381,0 4.1916761,0 6.2875141,0 1.760504,-0.167666 3.521008,-0.335333 5.281512,-0.503002 2.598839,-0.251499 5.197678,-0.502999 7.796518,-0.754501 0.586835,0 1.17367,0 1.760503,0 -0.08383,-0.754502 -0.167667,-1.509004 -0.2515,-2.263505 0,-0.503001 0,-1.006002 0,-1.509003 -0.503002,-3.604842 -1.006001,-7.209683 -1.509003,-10.814524 -0.08383,-2.515006 -0.167667,-5.0300118 -0.2515,-7.5450174 0,-0.5030012 0,-1.0060022 0,-1.5090034 -0.167669,0.083833 -0.335336,0.167667 -0.503002,0.2515005 -1.341337,0.1676672 -2.682673,0.3353342 -4.024009,0.5030012 -0.586835,0 -1.17367,0 -1.760504,0 -1.42517,0.2515005 -2.85034,0.5030012 -4.27551,0.7545017 -1.089836,0.2515005 -2.179671,0.5030012 -3.269507,0.7545017 -0.419168,0.167667 -0.838335,0.335334 -1.257503,0.5030012 C 11.736693,7.37735 10.143856,7.4611835 8.5510192,7.545017 7.9641847,7.1258493 7.37735,6.7066818 6.7905153,6.2875141 Z" />
    <path
       style="fill:none;fill-opacity:1;fill-rule:nonzero;stroke:#000000;stroke-width:1.765;stroke-dasharray:none;stroke-opacity:1"
       d="m 17.73079,20.497296 c -0.880252,0.712585 -0.880252,2.556922 -0.880252,5.113844 0,2.556923 0,5.826432 0,7.586935 0,1.760503 0,2.012005 0.461084,2.012005 0.461085,-10e-7 1.383253,-0.251501 2.389256,-0.377252 1.006002,-0.12575 2.095838,-0.12575 2.640755,-0.167665 0.544918,-0.04192 0.544918,-0.125751 0.628751,-0.209585 0.08383,-0.08383 0.251502,-0.167668 0.335336,-0.2515 0.08383,-0.08383 0.08383,-0.167668 0.167666,-0.251501 0.08383,-0.08383 0.251501,-0.167667 0.377251,-0.377251 0.12575,-0.209584 0.209584,-0.544918 0.293415,-0.7545 0.08383,-0.209583 0.167669,-0.29342 0.08384,-1.425172 -0.08383,-1.131753 -0.335334,-3.311425 -0.461085,-4.52701 -0.12575,-1.215586 -0.12575,-1.467087 -0.209584,-1.802421 -0.08383,-0.335334 -0.2515,-0.754502 -0.37725,-1.383253 -0.125751,-0.628752 -0.209584,-1.467087 -0.293416,-1.886254 -0.08383,-0.419168 -0.167669,-0.419168 -0.293419,-0.544918 -0.12575,-0.12575 -0.293417,-0.377251 -1.257502,-0.712585 -0.964086,-0.335334 -2.72459,-0.754502 -3.604842,-0.04192 z"
       id="path19"
       inkscape:path-effect="#path-effect20"
       inkscape:original-d="m 16.850538,19.365544 c 0,1.844337 0,3.688674 0,5.533012 0,3.269507 0,6.539016 0,9.808522 0,0.2515 0,0.503002 0,0.754502 0.922169,-0.2515 1.844337,-0.503002 2.766506,-0.754502 1.089836,0 2.179672,0 3.269507,0 0,-0.08383 0,-0.167666 0,-0.2515 0.167667,-0.08383 0.335335,-0.167669 0.503002,-0.251502 0,-0.08383 0,-0.167666 0,-0.2515 0.167667,-0.08383 0.335334,-0.167666 0.503001,-0.251499 0.08383,-0.335336 0.167667,-0.670669 0.2515,-1.006004 0.08383,-0.08383 0.167667,-0.167667 0.251501,-0.2515 -0.251501,-2.179672 -0.503001,-4.359344 -0.754502,-6.539015 0,-0.2515 0,-0.503001 0,-0.754501 -0.167667,-0.419168 -0.335334,-0.838336 -0.503001,-1.257503 -0.08383,-0.838336 -0.167667,-1.676671 -0.251501,-2.515006 -0.08383,0 -0.167667,0 -0.2515,0 -0.167667,-0.2515 -0.335334,-0.503001 -0.503001,-0.754502 -1.760504,-0.419167 -3.521008,-0.838335 -5.281512,-1.257502 z"
       transform="translate(0,-2.5150056)" />
  </g>
</svg>
